<?xml version="1.0" encoding="UTF-8"?>
<svg id="_레이어_2" data-name="레이어 2" xmlns="http://www.w3.org/2000/svg" viewBox="0 0 74.86 74.86">
  <defs>
    <style>
      .cls-1 {
        fill: none;
      }

      .cls-2 {
        fill: #564f4d;
      }
    </style>
  </defs>
  <g id="_레이어_1-2" data-name="레이어 1">
    <g>
      <g>
        <path class="cls-2" d="M32.14,35.19c-.24.07-.36.34-.28.59.08.25.34.39.57.32.23-.07.36-.34.28-.59-.08-.25-.34-.39-.57-.32Z"/>
        <path class="cls-2" d="M35.97,34.43c-.29.04-.5.3-.46.58.04.28.3.49.59.45.29-.04.5-.3.46-.58-.04-.28-.3-.49-.59-.45Z"/>
        <path class="cls-2" d="M42.73,32.17c-.14-.1-.33-.07-.43.07l-.58.79-.38.52-.42.57c-.53-.13-1.09-.52-1.67-1.18-.74-.84-1.88-1.34-3.11-1.38-1.52-.05-3,.58-4.18,1.75h0c-1.15,1.15-1.73,2.31-1.74,3.5-.69.11-1.41.27-2.08.53-.14.05-.26.13-.36.24-.29.29-.38.72-.24,1.1.08.21.22.38.4.5.28.18.63.22.94.1.58-.22,1.23-.36,1.85-.44.9,1.81,2.07,2.11,2.71,2.27.13.03.27.07.32.1.41.25.52.73.54,1,.05.43.04.76.02.99l-.78,1.07c-.1.14-.07.33.07.43,1.11.81,2,1.01,3.37,1.04,1.57.03,2.6-.37,3.93-1.07l.07-.04.62.45c.33.24.79.17,1.02-.16l3.06-4.2c.24-.33.17-.79-.16-1.02l-.6-.44v-.08c.28-1.5.38-3.02-.16-4.45-.47-1.24-.91-1.76-2.03-2.57ZM30.47,38.27c-.61.09-1.24.23-1.82.45-.14.05-.29.03-.4-.04-.07-.05-.13-.12-.17-.21-.06-.17-.02-.35.1-.47.04-.04.09-.08.15-.1.61-.23,1.27-.39,1.91-.49.2-.03.4-.06.59-.08,1.37-.15,2.5-.08,2.58-.07.24.02.43.23.41.47,0,.11-.06.21-.13.28-.09.09-.21.14-.34.13-.02,0-1.03-.07-2.28.06-.2.02-.4.04-.61.08ZM34.88,42.16c-.07-.65-.36-1.17-.83-1.45-.13-.08-.29-.12-.48-.17-.59-.15-1.46-.38-2.22-1.76,1.09-.09,1.95-.04,1.97-.04.3.02.59-.09.81-.3.18-.18.28-.41.3-.66.02-.28-.07-.54-.25-.75-.18-.21-.43-.34-.71-.36-.08,0-1.23-.08-2.65.07.04-1,.56-1.98,1.57-2.99h0c1.06-1.06,2.39-1.62,3.74-1.58,1.07.03,2.05.46,2.68,1.18.59.66,1.17,1.09,1.75,1.29l-5.65,7.75c0-.08-.01-.15-.02-.24ZM44.28,35.16c.51,1.41.3,2.73-.02,4.19-.03.12.02.24.12.32l.86.62-3.2,4.38-.88-.64c-.1-.07-.23-.08-.34-.02-1.28.73-2.44,1.28-3.94,1.21-1.1-.05-1.64-.16-2.57-.76l-.12-.08.29-.39,1.08-1.48,5.64-7.74.47-.65.92-1.26.11.09c.86.71,1.2,1.2,1.57,2.21Z"/>
      </g>
      <rect class="cls-1" width="74.86" height="74.86" transform="translate(0 74.86) rotate(-90)"/>
    </g>
  </g>
</svg>