<?xml version="1.0" encoding="UTF-8"?>
<svg id="_레이어_2" data-name="레이어 2" xmlns="http://www.w3.org/2000/svg" viewBox="0 0 183.54 179.94">
  <defs>
    <style>
      .cls-1 {
        fill: #fff;
      }

      .cls-2 {
        fill: #6f88aa;
      }

      .cls-3 {
        fill: #e8d585;
      }

      .cls-4 {
        fill: #f7f4ec;
      }

      .cls-5 {
        fill: #564f4d;
      }
    </style>
  </defs>
  <g id="_레이어_1-2" data-name="레이어 1">
    <g>
      <g>
        <g>
          <path class="cls-2" d="M166.58,79.53h11.83c0,15.93-4.31,30.86-11.81,43.7H16.93c-7.51-12.82-11.81-27.76-11.81-43.7h161.45Z"/>
          <path class="cls-4" d="M150.57,57.03c0,7.98,18.9,15.58,16.01,22.5H20.37c-2.89-6.92,13.21-14.53,13.21-22.5,0-32.3,26.19-51.9,58.49-51.9s58.49,19.61,58.49,51.9ZM135.3,44.6c0-3.76-3.71-6.81-8.28-6.81s-8.27,3.05-8.27,6.81,3.71,6.81,8.27,6.81,8.28-3.06,8.28-6.81ZM90.57,44.6c0-3.76-3.71-6.81-8.28-6.81s-8.27,3.05-8.27,6.81,3.71,6.81,8.27,6.81,8.28-3.06,8.28-6.81Z"/>
          <path class="cls-1" d="M16.93,123.23h149.68c-9.08,15.52-22.86,27.97-39.38,35.39v11.27c0,2.72-2.21,4.93-4.93,4.93h-60.44c-2.72,0-4.93-2.21-4.93-4.93v-11c-16.8-7.38-30.8-19.94-40-35.66Z"/>
          <path class="cls-5" d="M127.01,37.79c4.58,0,8.28,3.05,8.28,6.81s-3.71,6.81-8.28,6.81-8.27-3.06-8.27-6.81,3.71-6.81,8.27-6.81Z"/>
          <path class="cls-5" d="M82.28,37.79c4.58,0,8.28,3.05,8.28,6.81s-3.71,6.81-8.28,6.81-8.27-3.06-8.27-6.81,3.71-6.81,8.27-6.81Z"/>
        </g>
        <path class="cls-5" d="M178.41,74.41h-7.13c-1.6-3.86-5.47-7.2-8.82-10.08-2.18-1.88-6.71-5.78-6.76-7.3,0-16.99-6.55-31.51-18.95-41.98C125.25,5.35,109.39,0,92.08,0s-33.18,5.35-44.67,15.05c-12.4,10.47-18.95,24.99-18.95,41.98,0,1.69-3.39,5.16-5.64,7.46-2.8,2.87-6.03,6.17-7.34,9.92H5.13c-2.83,0-5.13,2.3-5.13,5.13,0,16.31,4.33,32.31,12.51,46.28,9.16,15.66,23.03,28.46,39.29,36.35v7.72c0,5.54,4.51,10.05,10.05,10.05h60.44c5.54,0,10.05-4.51,10.05-10.05v-8.02c16-7.92,29.66-20.62,38.68-36.05,8.18-14,12.51-30,12.51-46.28,0-2.83-2.3-5.13-5.13-5.13ZM30.15,71.65c4.01-4.11,8.56-8.76,8.56-14.62,0-27.54,21.95-46.78,53.37-46.78s53.37,19.24,53.37,46.78c0,6.17,5.49,10.9,10.33,15.06.76.66,1.71,1.48,2.63,2.31H27.54c.89-.98,1.86-1.98,2.61-2.75ZM162.18,120.64c-8.52,14.57-21.68,26.4-37.06,33.3-1.84.83-3.03,2.66-3.03,4.68v11.07h-60.05v-10.8c0-2.03-1.2-3.87-3.06-4.69-15.62-6.86-28.99-18.78-37.63-33.56-6.41-10.94-10.15-23.28-10.94-35.98h9.95s0,0,.01,0c0,0,0,0,0,0h152.75c-.8,12.68-4.54,25.03-10.94,35.98Z"/>
      </g>
      <path class="cls-3" d="M154.44,103.12c-1.59,0-3.16-.74-4.16-2.13-14.65-20.35-41.66-35.65-41.93-35.8-2.47-1.39-3.35-4.51-1.96-6.98,1.39-2.47,4.51-3.35,6.98-1.96,1.19.67,29.27,16.58,45.23,38.75,1.65,2.3,1.13,5.5-1.16,7.15-.91.65-1.95.97-2.99.97Z"/>
    </g>
  </g>
</svg>