<svg id="no-post-icon-svg" data-name="no-post-icon-svg" xmlns="http://www.w3.org/2000/svg" viewBox="0 0 108.97 114.44">
  <defs>
    <style>
      .cls-1 {
        fill: #8890a3;
      }
    </style>
  </defs>
  <g id="no-post-illust" data-name="no-post-illust">
    <g>
      <path class="cls-1" d="M22.81,74.51c-1.88-.13-3.48.97-3.58,2.46-.1,1.49,1.34,2.8,3.21,2.93,1.87.13,3.48-.98,3.58-2.46.1-1.49-1.34-2.8-3.21-2.93Z"/>
      <path class="cls-1" d="M44.63,76.95c-1.88-.13-3.48.97-3.58,2.46-.1,1.49,1.34,2.8,3.21,2.93,1.87.13,3.48-.98,3.58-2.46.1-1.49-1.34-2.8-3.21-2.93Z"/>
      <path class="cls-1" d="M108.26,37.64c-2.15-12.25-9.01-22.82-19.32-29.75C66.76-7.03,37.86.93,25.8,17.41c-.96,1.31-1.79,2.66-2.52,4.04-4.29,6.5-4.76,15.13-1.28,24.44,1.38,3.7,3.33,7.33,5.76,10.81-1.28,1.08-2.64,1.99-4.05,2.92-3.43,2.27-6.97,4.61-9.2,9.62l-.06.12c-1.59,3.36-4.03,11.04-1.85,15.99.52,1.18.22,2.23-.1,3.35-.35,1.22-.78,2.74.26,4.11.02.03.05.06.08.09-4.3,4.09-8.8,9.08-12.17,14.56-1.32,2.15-.65,4.97,1.5,6.29.73.44,1.54.68,2.38.68.11,0,.23,0,.34-.01,1.46-.11,2.79-.92,3.56-2.17,3.99-6.49,10.01-12.35,14.9-16.5,5.83.48,14.82.7,28.89.7h.39c5.34,0,9.8-4.05,14.1-7.97,2.08-1.9,4.05-3.68,5.9-4.84.1-.06.2-.11.3-.16.49.04.99.09,1.48.11.7.04,1.38.05,2.07.05,10.3,0,18.73-4.1,24.46-11.93,6.71-9.17,9.44-21.91,7.31-34.08ZM5.91,110.69c-.27.44-.72.71-1.23.75h0c-.33.02-.65-.05-.93-.23-.36-.22-.61-.57-.71-.98-.1-.41-.03-.83.19-1.19,8.4-13.67,24.23-24.23,24.9-24.68.26-.17.56-.26.86-.26.1,0,.21.01.32.03.41.08.77.32,1,.67.23.35.31.77.23,1.18-.08.41-.32.77-.67,1-.16.1-15.9,10.59-23.96,23.7ZM71.15,81.06c-2.17,1.34-4.23,3.22-6.42,5.21-3.88,3.54-7.9,7.19-12.08,7.19h-.46c-9.16,0-18.43-.08-25.43-.48,2.79-2.18,4.7-3.46,4.76-3.5,1.02-.67,1.71-1.7,1.96-2.9s0-2.42-.67-3.43c-.67-1.02-1.71-1.72-2.9-1.96-1.2-.24-2.42,0-3.43.67-.38.25-5.43,3.62-11.35,8.94,0-.29.14-.81.27-1.28.39-1.36.91-3.22-.04-5.38-1.44-3.26-.14-9.38,1.81-13.49l.06-.13s.01-.03.02-.04c1.88-4.22,4.91-6.23,8.12-8.35,2.71-1.79,5.51-3.64,7.84-6.86,2.67-3.67,2.36-6.18,2.02-8.83-.26-2.04-.52-4.16.44-7.49,3.02-10.47,16.7-14.16,25.12-14.16,1,0,1.92.05,2.74.15,8.78,1.05,16.38,5.56,20.86,12.38,4.6,7,5.5,15.83,2.61,25.52-2.96,9.91-7.07,13.48-15.85,18.23ZM99.27,68.88c5.05-13.57-3.51-32.94-21.26-45.93-9.63-7.05-20.5-11.21-30.62-11.73-4.92-.25-9.39.38-13.24,1.82,7.5-6.12,18.01-9.88,28.86-9.88,8.31,0,16.8,2.2,24.28,7.23,9.62,6.47,16.03,16.34,18.03,27.78,1.91,10.92-.35,22.29-6.04,30.72Z"/>
    </g>
  </g>
</svg>